# xmcd
# Track frame offsets:
# 150
# 11317
# 23640
# 37677
# 52582
# 75925
# 91449
# 106644
# 120722
# 135539
#
# Disc length: 2047 seconds
# Revision: 0
# Processed by: cddbd v1.5.2PL0 Copyright (c) Steve Scherf et al.
# Submitted via: VisiTrax 2.10.3.257 - For more info visit www.synapsa.com
#
DISCID=5907fd0a
DTITLE=Jerry Butler - You and Me
DYEAR=1970
DGENRE=Soul
TTITLE0=I Could Write A Book
TTITLE1=A One Woman Man
TTITLE2=Tammy Jones
TTITLE3=Real Good Man
TTITLE4=Something
TTITLE5=Ordinary Joe
TTITLE6=Life's Unfortunate Sons
TTITLE7=No Money Down
TTITLE8=Winter Of A Loving Heart
TTITLE9=You And Me
EXTD=
EXTT0=
EXTT1=
EXTT2=
EXTT3=
EXTT4=
EXTT5=
EXTT6=
EXTT7=
EXTT8=
EXTT9=
PLAYORDER=
